<svg width="268" height="455" viewBox="0 0 268 455" fill="none" xmlns="http://www.w3.org/2000/svg">
<path d="M0.000595092 101.5C0.000595092 95.9771 4.47774 91.4999 10.0006 91.4999H258C263.523 91.4999 268 95.9771 268 101.5V145.5C268 151.023 263.523 155.5 258 155.5H10.0006C4.47774 155.5 0.000595092 151.023 0.000595092 145.5V101.5Z" fill="#737D7F"/>
<path d="M0.000595092 9.99999C0.000595092 4.47715 4.47774 0 10.0006 0H258C263.523 0 268 4.47715 268 9.99999V54C268 59.5228 263.523 63.9999 258 63.9999H10.0006C4.47775 63.9999 0.000595092 59.5228 0.000595092 54V9.99999Z" fill="#737D7F"/>
<path d="M0.000602722 193C0.000602722 187.477 4.47775 183 10.0006 183H258C263.523 183 268 187.477 268 193V237C268 242.523 263.523 247 258 247H10.0006C4.47776 247 0.000602722 242.523 0.000602722 237V193Z" fill="#737D7F"/>
<path d="M-7.62939e-06 401C-7.62939e-06 395.477 4.47714 391 9.99998 391H258C263.523 391 268 395.477 268 401V445C268 450.522 263.523 455 258 455H9.99999C4.47715 455 -7.62939e-06 450.522 -7.62939e-06 445V401Z" fill="#737D7F"/>
<path d="M0.000366211 287.5C0.000366211 281.977 4.47751 277.5 10.0004 277.5H258C263.523 277.5 268 281.977 268 287.5V331.5C268 337.023 263.523 341.5 258 341.5H10.0004C4.47752 341.5 0.000366211 337.023 0.000366211 331.5V287.5Z" fill="#737D7F"/>
</svg>
