<svg width="273" height="26" viewBox="0 0 273 26" fill="none" xmlns="http://www.w3.org/2000/svg">
<path d="M0 5C0 2.23858 2.23858 0 5 0H24C26.7614 0 29 2.23858 29 5V21C29 23.7614 26.7614 26 24 26H5C2.23858 26 0 23.7614 0 21V5Z" fill="#282717"/>
<path d="M0 6.84211C0 3.06332 3.24594 0 7.25 0H21.75C25.7541 0 29 3.06332 29 6.84211V19.1579C29 22.9367 25.7541 26 21.75 26H7.25C3.24594 26 0 22.9367 0 19.1579V6.84211Z" fill="#282717"/>
<path d="M37.75 6.84211C37.75 3.06332 40.9959 0 45 0H59.5C63.5041 0 66.75 3.06332 66.75 6.84211V19.1579C66.75 22.9367 63.5041 26 59.5 26H45C40.9959 26 37.75 22.9367 37.75 19.1579V6.84211Z" fill="#282717"/>
<path d="M78.75 6.84211C78.75 3.06332 81.9959 0 86 0H100.5C104.504 0 107.75 3.06332 107.75 6.84211V19.1579C107.75 22.9367 104.504 26 100.5 26H86C81.9959 26 78.75 22.9367 78.75 19.1579V6.84211Z" fill="#282717"/>
<path d="M119.75 6.84211C119.75 3.06332 122.996 0 127 0H141.5C145.504 0 148.75 3.06332 148.75 6.84211V19.1579C148.75 22.9367 145.504 26 141.5 26H127C122.996 26 119.75 22.9367 119.75 19.1579V6.84211Z" fill="#282717"/>
<path d="M161.75 6.84211C161.75 3.06332 164.996 0 169 0H183.5C187.504 0 190.75 3.06332 190.75 6.84211V19.1579C190.75 22.9367 187.504 26 183.5 26H169C164.996 26 161.75 22.9367 161.75 19.1579V6.84211Z" fill="#282717"/>
<path d="M203.75 6.84211C203.75 3.06332 206.996 0 211 0H225.5C229.504 0 232.75 3.06332 232.75 6.84211V19.1579C232.75 22.9367 229.504 26 225.5 26H211C206.996 26 203.75 22.9367 203.75 19.1579V6.84211Z" fill="#282717"/>
<path d="M244 6.84211C244 3.06332 247.246 1.90735e-06 251.25 1.90735e-06H265.75C269.754 1.90735e-06 273 3.06332 273 6.84211V19.1579C273 22.9367 269.754 26 265.75 26H251.25C247.246 26 244 22.9367 244 19.1579V6.84211Z" fill="#282717"/>
</svg>
