<svg width="14" height="16" viewBox="0 0 14 16" fill="none" xmlns="http://www.w3.org/2000/svg">
<path d="M8.07691 1.17334C8.07691 0.524338 7.59566 0 6.99999 0C6.40432 0 5.92307 0.524338 5.92307 1.17334V6.45339H1.07692C0.481249 6.45339 0 6.97772 0 7.62673C0 8.27573 0.481249 8.80007 1.07692 8.80007H5.92307V14.0801C5.92307 14.7291 6.40432 15.2535 6.99999 15.2535C7.59566 15.2535 8.07691 14.7291 8.07691 14.0801V8.80007H12.9231C13.5187 8.80007 14 8.27573 14 7.62673C14 6.97772 13.5187 6.45339 12.9231 6.45339H8.07691V1.17334Z" fill="#FEFAFA"/>
</svg>
