<svg width="15" height="14" viewBox="0 0 15 14" fill="none" xmlns="http://www.w3.org/2000/svg">
<path d="M8.57148 2.1875C8.57148 1.70352 8.09269 1.3125 7.50005 1.3125C6.90742 1.3125 6.42862 1.70352 6.42862 2.1875V6.125H1.6072C1.01456 6.125 0.535767 6.51602 0.535767 7C0.535767 7.48398 1.01456 7.875 1.6072 7.875H6.42862V11.8125C6.42862 12.2965 6.90742 12.6875 7.50005 12.6875C8.09269 12.6875 8.57148 12.2965 8.57148 11.8125V7.875H13.3929C13.9855 7.875 14.4643 7.48398 14.4643 7C14.4643 6.51602 13.9855 6.125 13.3929 6.125H8.57148V2.1875Z" fill="#FEFAFA"/>
<path d="M8.57136 2.1875C8.57136 1.70352 8.09256 1.3125 7.49993 1.3125C6.9073 1.3125 6.4285 1.70352 6.4285 2.1875V6.125H1.60707C1.01444 6.125 0.535645 6.51602 0.535645 7C0.535645 7.48398 1.01444 7.875 1.60707 7.875H6.4285V11.8125C6.4285 12.2965 6.9073 12.6875 7.49993 12.6875C8.09256 12.6875 8.57136 12.2965 8.57136 11.8125V7.875H13.3928C13.9854 7.875 14.4642 7.48398 14.4642 7C14.4642 6.51602 13.9854 6.125 13.3928 6.125H8.57136V2.1875Z" fill="#FEFAFA"/>
</svg>
